<?xml version="1.0" encoding="UTF-8"?>
<svg id="Calque_2" data-name="Calque 2" xmlns="http://www.w3.org/2000/svg" viewBox="0 0 301.52 325.81">
  <defs>
    <style>
      .cls-1 {
        fill: #ABFFAF;
        stroke-width: 0px;
      }
    </style>
  </defs>
  <path class="cls-1" d="M289.61,298.19c-13.43-8.09-60.91-58.43-52.17-127.17,0,0,10.75-67.53,32.91-107.27,3.31-5.93,6.67-11.84,9.9-17.81,4.23-7.8,10.24-18.62,16.6-29.15,11.93-19.76-8.22-16.24-14.87-16.24h-35.22c-11.54,0-21.59,19.43-21.59,19.43-14.56,23.3-34.77,93.56-38.56,125.29C158.46,95.43,124.26,30.01,117.61,13.74c-3.32-8.1-11.93-11.51-19.92-12.89C94.09.09,90.82-.05,88.45.01c-1.9-.04-3.52,0-4.73.07-.45,0-.9,0-1.37.02-14.22.52-34.96-.02-48.13-.02S4.87-.42,1.74,6.88c-3.13,7.3-3.26,12.65,10.17,20.74,13.43,8.09,60.91,58.43,52.17,127.17,0,0-10.75,67.53-32.91,107.27-3.31,5.93-6.67,11.84-9.9,17.81-4.23,7.8-10.24,18.62-16.6,29.15-11.93,19.76,8.22,16.24,14.87,16.24h35.22c11.54,0,21.59-19.43,21.59-19.43,14.56-23.3,34.77-93.56,38.56-125.29,28.16,49.84,62.35,115.25,69.01,131.52,3.32,8.1,11.93,11.51,19.92,12.89,3.6.77,6.87.91,9.24.85,1.9.04,3.52,0,4.73-.07.45,0,.9,0,1.37-.02,14.22-.52,34.96.02,48.13.02s29.35.5,32.48-6.8c3.13-7.3,3.26-12.65-10.17-20.74Z"/>
</svg>